<svg id="Capa_1" enable-background="new 0 0 512 512" height="512" viewBox="0 0 512 512" width="512" xmlns="http://www.w3.org/2000/svg"><g><g><path d="m459.82 325.19c-3.02 8.88-6.62 17.57-10.78 25.99l36.91 36.91-97.86 97.86-36.91-36.91c-8.42 4.16-17.11 7.76-25.99 10.78v52.18h-138.38v-52.18c-8.88-3.02-17.57-6.62-25.99-10.78l-36.91 36.91-97.86-97.86 36.91-36.91c-4.16-8.42-7.76-17.11-10.78-25.99h-52.18v-138.38h52.18c3.02-8.88 6.62-17.57 10.78-25.99l-36.91-36.91 97.86-97.86 36.91 36.91c8.42-4.16 17.11-7.76 25.99-10.78v-52.18h138.38v52.18c8.88 3.02 17.57 6.62 25.99 10.78l36.91-36.91 97.86 97.86-36.91 36.91c4.16 8.42 7.76 17.11 10.78 25.99h52.18v138.38z" fill="#557f89"/><path d="m459.82 325.19c-3.02 8.88-6.62 17.57-10.78 25.99l36.91 36.91-97.86 97.86-36.91-36.91c-8.42 4.16-17.11 7.76-25.99 10.78v52.18h-69.19v-512h69.19v52.18c8.88 3.02 17.57 6.62 25.99 10.78l36.91-36.91 97.86 97.86-36.91 36.91c4.16 8.42 7.76 17.11 10.78 25.99h52.18v138.38z" fill="#304b59"/><path d="m108.52 256.8c0 81.32 66.16 147.47 147.48 147.47l25-149.27-25-145.68c-81.32 0-147.48 66.16-147.48 147.48z" fill="#d4f4ee"/><path d="m403.48 256.8c0 81.32-66.16 147.47-147.48 147.47v-294.95c81.32 0 147.48 66.16 147.48 147.48z" fill="#b0daed"/><path d="m194.46 255c0 33.94 27.6 61.54 61.54 61.54l13-61.54-13-61.54c-33.94 0-61.54 27.6-61.54 61.54z" fill="#fff"/></g><path d="m317.54 255c0 33.94-27.6 61.54-61.54 61.54v-123.08c33.94 0 61.54 27.6 61.54 61.54z" fill="#d4f4ee"/></g></svg>