<svg width="219" height="219" xmlns="http://www.w3.org/2000/svg" xmlns:xlink="http://www.w3.org/1999/xlink" overflow="hidden"><defs><clipPath id="clip0"><rect x="0" y="0" width="219" height="219"/></clipPath></defs><g clip-path="url(#clip0)"><path d="M109.5 0C64.2217 0 27.375 37.1022 27.375 82.7181 27.375 147.533 101.78 214.456 104.947 217.266 106.252 218.425 107.876 219 109.5 219 111.124 219 112.748 218.425 114.053 217.275 117.22 214.456 191.625 147.533 191.625 82.7181 191.625 37.1022 154.778 0 109.5 0ZM109.5 127.75C84.3424 127.75 63.875 107.283 63.875 82.125 63.875 56.9674 84.3424 36.5 109.5 36.5 134.658 36.5 155.125 56.9674 155.125 82.125 155.125 107.283 134.658 127.75 109.5 127.75Z" stroke="#000000" stroke-width="3" fill="#FFD966"/></g></svg>