<svg width="120" height="130" xmlns="http://www.w3.org/2000/svg" xmlns:xlink="http://www.w3.org/1999/xlink" overflow="hidden"><defs><clipPath id="clip0"><rect x="588" y="306" width="120" height="130"/></clipPath><clipPath id="clip1"><rect x="596" y="307" width="96" height="96"/></clipPath><clipPath id="clip2"><rect x="596" y="307" width="96" height="96"/></clipPath><clipPath id="clip3"><rect x="596" y="307" width="96" height="96"/></clipPath><clipPath id="clip4"><rect x="588" y="313" width="96" height="96"/></clipPath><clipPath id="clip5"><rect x="588" y="313" width="96" height="96"/></clipPath><clipPath id="clip6"><rect x="588" y="313" width="96" height="96"/></clipPath><clipPath id="clip7"><rect x="612" y="340" width="96" height="96"/></clipPath><clipPath id="clip8"><rect x="612" y="340" width="96" height="96"/></clipPath><clipPath id="clip9"><rect x="612" y="340" width="96" height="96"/></clipPath></defs><g clip-path="url(#clip0)" transform="translate(-588 -306)"><path d="M588 360C588 330.729 611.281 307 640 307 668.719 307 692 330.729 692 360 692 389.271 668.719 413 640 413 611.281 413 588 389.271 588 360Z" fill="#FBE5D6" fill-rule="evenodd"/><g clip-path="url(#clip1)"><g clip-path="url(#clip2)"><g clip-path="url(#clip3)"><path d="M649.277 315.606C649.277 313.662 647.319 312.085 644.904 312.085 643.007 311.959 641.257 313.109 640.62 314.9 640.535 315.135 640.481 315.38 640.457 315.629 639.914 322.314 638.944 328.384 632.916 334.706 631.988 334.331 631.036 334.017 630.068 333.764 629.599 330.854 628.211 328.17 626.108 326.105 625.281 325.373 624.017 325.45 623.285 326.277 622.566 327.088 622.625 328.324 623.417 329.064 624.49 330.159 625.302 331.483 625.79 332.936 624.103 332.717 622.403 332.607 620.702 332.606 619.597 332.606 618.702 333.501 618.702 334.606 618.702 335.711 619.597 336.606 620.702 336.606 624.078 336.574 627.437 337.085 630.651 338.117 623.251 343.177 617.993 343.506 608.967 342.982 607.864 342.929 606.926 343.78 606.873 344.883 606.821 345.971 607.648 346.901 608.734 346.975L610.006 347.05C614.859 347.338 618.854 347.566 622.76 346.871 622.726 347.664 622.643 348.454 622.512 349.237 622.133 351.826 620.152 353.888 617.581 354.37 617.272 354.424 616.975 354.491 616.671 354.552 613.288 352.901 609.565 352.064 605.8 352.11 603.744 352.033 601.696 352.407 599.8 353.205 598.816 353.707 598.425 354.911 598.927 355.896 599.419 356.858 600.586 357.257 601.563 356.795 603.282 355.951 606.863 355.938 610.03 356.495 608.158 357.232 606.379 358.185 604.73 359.337 603.829 359.979 603.619 361.23 604.261 362.132 604.904 363.033 606.155 363.242 607.056 362.6 610.439 360.37 614.268 358.907 618.276 358.313 622.532 357.534 625.822 354.137 626.463 349.858 626.713 348.526 626.8 347.17 626.723 345.817 628.222 345.267 629.668 344.583 631.044 343.773 631.419 344.357 631.829 344.956 632.253 345.573 635.053 349.644 638.541 354.711 635.778 361.173 633.778 365.864 628.578 370.1 623.093 371.563 622.526 371.537 621.316 371.491 619.77 371.491 616.234 371.491 610.959 371.73 607.67 372.984 606.638 373.379 606.122 374.535 606.517 375.567 606.912 376.599 608.068 377.115 609.1 376.72 611.882 375.658 617.074 375.456 620.569 375.493 619.737 377.931 618.777 380.323 617.693 382.66 617.201 383.649 617.603 384.849 618.592 385.342 619.581 385.834 620.781 385.432 621.274 384.443 621.28 384.43 621.287 384.416 621.293 384.403 622.671 381.409 623.873 378.337 624.893 375.203 627.135 374.498 629.263 373.474 631.212 372.162 631.851 373.369 632.275 374.678 632.466 376.031 632.572 377.343 631.866 379.19 631.187 380.977 630.726 382.112 630.335 383.274 630.017 384.457 629.317 387.312 630.063 389.72 631.294 393.707 631.572 394.607 631.881 395.607 632.211 396.73 632.522 397.79 633.634 398.397 634.693 398.086 635.753 397.774 636.36 396.663 636.049 395.603 635.713 394.459 635.399 393.443 635.116 392.526 634.554 390.707 634.161 389.398 633.944 388.331 636.055 388.741 638.066 389.556 639.866 390.731 640.82 391.288 642.045 390.966 642.602 390.012 643.148 389.075 642.848 387.872 641.925 387.302 639.591 385.791 636.969 384.779 634.225 384.328 634.425 383.716 634.671 383.073 634.925 382.402 635.765 380.202 636.634 377.92 636.453 375.702 636.175 373.565 635.484 371.503 634.418 369.63 636.558 367.706 638.275 365.358 639.459 362.735 640.528 360.319 640.965 357.672 640.73 355.041 644.812 357.233 648.615 359.908 652.058 363.009 651.007 366.445 650.373 369.994 650.17 373.581 650.143 373.588 650.116 373.581 650.09 373.594 648.046 374.424 646.164 375.609 644.531 377.094 643.716 377.839 643.658 379.104 644.403 379.919 645.115 380.698 646.308 380.791 647.131 380.131 648.045 379.341 649.027 378.632 650.064 378.012 650.086 378.98 650.137 379.897 650.222 380.728 650.333 381.827 651.313 382.629 652.412 382.518 653.511 382.408 654.312 381.427 654.202 380.328 653.83 375.56 654.209 370.763 655.324 366.112 659.326 370.108 662.757 374.638 665.52 379.573 666.034 380.55 667.244 380.926 668.221 380.411 669.199 379.897 669.574 378.687 669.06 377.71 669.051 377.693 669.042 377.677 669.033 377.661 668.153 376.044 667.165 374.444 666.097 372.871 667.425 373.237 668.699 373.779 669.884 374.482 670.797 375.104 672.041 374.869 672.663 373.956 673.285 373.043 673.05 371.799 672.137 371.177 672.116 371.163 672.095 371.149 672.073 371.135 669.121 369.204 664.255 368.22 662.351 367.894 656.184 360.43 648.29 354.056 640.507 350.481 639.614 346.786 638.222 343.229 636.371 339.909 636.671 339.638 636.979 339.369 637.271 339.087 639.752 337.237 641.929 335.01 643.722 332.487 647.47 332.964 653.222 335.592 657.752 338.147 657.698 338.232 657.65 338.32 657.609 338.412 657.12 339.983 656.809 341.604 656.684 343.244 653.545 343.975 650.633 345.465 648.204 347.583 647.371 348.308 647.283 349.571 648.008 350.405 648.732 351.238 649.996 351.326 650.829 350.601 650.866 350.569 650.902 350.535 650.937 350.5 652.586 349.06 654.532 348.001 656.637 347.4 656.76 349.216 657.073 351.014 657.571 352.764 657.875 353.826 658.982 354.441 660.044 354.137 661.106 353.833 661.721 352.726 661.417 351.664 660.365 347.938 660.301 344.001 661.232 340.243 662.082 340.785 662.901 341.375 663.684 342.011L663.702 342.026 663.702 342.026C667.368 345.142 669.328 349.042 671.402 353.172 673.545 357.436 675.762 361.845 679.963 365.172 680.829 365.857 682.087 365.711 682.773 364.845 683.458 363.978 683.311 362.72 682.445 362.035 680.305 360.259 678.53 358.086 677.218 355.635 680.372 355.67 683.479 356.402 686.318 357.777 687.297 358.288 688.506 357.909 689.017 356.93 689.528 355.951 689.149 354.742 688.17 354.231 686.737 353.504 685.23 352.934 683.675 352.531 684.455 351.997 685.328 351.614 686.249 351.401 687.329 351.171 688.019 350.109 687.789 349.028 687.597 348.13 686.818 347.477 685.9 347.446 685.779 347.446 685.657 347.457 685.538 347.479 682.468 348.04 679.633 350.454 678.351 351.686 678.012 351.669 677.673 351.653 677.351 351.653 676.631 351.649 675.912 351.698 675.199 351.798 675.129 351.66 675.06 351.525 674.99 351.386 673.941 349.209 672.776 347.091 671.5 345.039 673.075 343.979 674.984 343.534 676.866 343.787 677.95 344.001 679.002 343.295 679.216 342.211 679.429 341.128 678.724 340.076 677.64 339.862 677.029 339.742 676.407 339.682 675.784 339.683 673.406 339.747 671.096 340.486 669.122 341.814 668.258 340.797 667.314 339.851 666.298 338.986 666.193 338.897 666.079 338.804 665.954 338.705 662.995 336.284 653.6 329.58 646.626 327.248 648.094 323.703 648.978 319.943 649.245 316.115Z" fill="#F4B183"/></g></g></g><g clip-path="url(#clip4)"><g clip-path="url(#clip5)"><g clip-path="url(#clip6)"><path d="M670.9 352.1C670.6 352.1 670.3 352.1 670 352.1L667.4 345.1C673.4 341.7 675.5 334.1 672.2 328.1 668.8 322.1 661.2 320 655.2 323.3 652.3 324.9 650.1 327.7 649.3 330.9L640 329.9C639.3 325.5 635.2 322.4 630.8 323.1 626.8 323.7 623.9 327.1 623.9 331.1 623.9 332.5 624.3 333.9 625 335.2L613.8 346.2C611.7 344.6 609.1 343.7 606.4 343.7 599.5 343.7 593.9 349.3 593.9 356.2 593.9 363.1 599.5 368.7 606.4 368.7L608.9 383.7C604.8 385.5 602.9 390.3 604.7 394.4 606.5 398.5 611.3 400.4 615.4 398.6 619.2 397 621.1 392.8 620 388.8L628.8 384.2C634.5 390.5 644.3 391 650.7 385.3 653.9 382.4 655.8 378.2 655.8 373.9 655.8 372.8 655.7 371.6 655.4 370.5L665.1 365.5C668.1 368.9 673.2 369.2 676.6 366.2 680 363.2 680.3 358.1 677.3 354.7 675.4 353.1 673.2 352.1 670.9 352.1L670.9 352.1ZM670.9 355.1C672.2 355.1 673.2 356.1 673.2 357.4 673.2 358.7 672.2 359.7 670.9 359.7 669.6 359.7 668.6 358.7 668.6 357.4 668.6 357.4 668.6 357.4 668.6 357.4 668.6 356.1 669.6 355.1 670.9 355.1L670.9 355.1ZM661.3 326.6C663.2 326.6 664.8 328.2 664.8 330.1 664.8 332 663.2 333.6 661.3 333.6 659.4 333.6 657.8 332 657.8 330.1 657.8 330.1 657.8 330.1 657.8 330.1 657.8 328.2 659.3 326.6 661.3 326.6ZM654.2 338C654.2 337.5 654.5 336.9 654.9 336.6 655.9 335.9 657.1 335.3 658.3 335 659.2 334.7 660.2 334.6 661.2 334.6 662.2 334.6 663.2 334.8 664.1 335 665.3 335.3 666.5 335.9 667.5 336.7 667.9 337 668.2 337.6 668.2 338.1L668.2 340.8 654.2 340.8 654.2 338ZM631.9 326C633.2 326 634.2 327 634.2 328.3 634.2 329.6 633.2 330.6 631.9 330.6 630.6 330.6 629.6 329.6 629.6 328.3 629.6 328.3 629.6 328.3 629.6 328.3 629.6 327.1 630.6 326 631.9 326L631.9 326ZM627.2 333.5C627.2 333.1 627.4 332.8 627.7 332.6 628.4 332.1 629.2 331.8 630 331.6 630.6 331.4 631.3 331.3 631.9 331.3 632.5 331.3 633.2 331.4 633.8 331.6 634.6 331.8 635.3 332.2 636 332.7 636.3 332.9 636.5 333.3 636.5 333.6L636.5 335.4 627.3 335.4 627.3 333.5ZM606.2 348.6C608.1 348.6 609.7 350.2 609.7 352.1 609.7 354 608.1 355.6 606.2 355.6 604.3 355.6 602.7 354 602.7 352.1 602.7 352.1 602.7 352.1 602.7 352.1 602.8 350.2 604.3 348.6 606.2 348.6L606.2 348.6ZM599.2 362.7 599.2 360C599.2 359.5 599.5 358.9 599.9 358.6 600.9 357.9 602.1 357.3 603.3 357 604.2 356.7 605.2 356.6 606.2 356.6 607.2 356.6 608.2 356.8 609.1 357 610.3 357.3 611.5 357.9 612.5 358.7 612.9 359 613.2 359.6 613.2 360.1L613.2 362.8 599.2 362.7ZM616.5 395.3 607.2 395.3 607.2 393.5C607.2 393.1 607.4 392.8 607.7 392.6 608.4 392.1 609.2 391.7 610 391.5 610.6 391.3 611.3 391.2 611.9 391.2 612.5 391.2 613.2 391.3 613.8 391.5 614.6 391.7 615.3 392.1 616 392.6 616.3 392.8 616.5 393.2 616.5 393.5L616.5 395.3ZM609.5 388.3C609.5 387 610.5 386 611.8 386 613.1 386 614.1 387 614.1 388.3 614.1 389.6 613.1 390.6 611.8 390.6 610.6 390.7 609.6 389.6 609.5 388.3L609.5 388.3ZM617.5 385.5C616.2 384.2 614.4 383.4 612.6 383.2L610.1 368.2C612.5 367.4 614.6 365.9 616.1 363.9L625.4 368.8C623.9 372.8 624.2 377.3 626.2 381.1L617.5 385.5ZM627.3 365.1 618.1 360.3C618.5 359 618.7 357.7 618.7 356.3 618.7 353.7 617.9 351.2 616.4 349.1L627.6 338.2C631.4 340.5 636.4 339.4 638.7 335.6 639 335.1 639.2 334.6 639.4 334.1L648.7 335.1C648.9 338.7 650.7 342.1 653.6 344.3L645.4 359.6C638.9 357 631.4 359.3 627.3 365.1L627.3 365.1ZM644.3 368.8C644.3 371.2 642.3 373.1 639.9 373.1 637.5 373.1 635.6 371.2 635.6 368.8 635.6 366.4 637.5 364.5 639.9 364.5 639.9 364.5 639.9 364.5 640 364.5 642.4 364.5 644.3 366.4 644.3 368.8L644.3 368.8ZM648.6 381.9 631.3 381.9 631.3 378.6C631.3 377.9 631.6 377.3 632.2 376.9 633.5 376 634.9 375.3 636.4 374.8 637.6 374.5 638.8 374.3 640 374.3 641.2 374.3 642.4 374.5 643.6 374.8 645.1 375.2 646.6 375.9 647.8 376.9 648.3 377.3 648.7 378 648.7 378.6L648.6 381.9ZM662.8 360.3C662.8 360.9 662.9 361.5 663.1 362.1L653.9 366.9C652.8 364.7 651.1 362.9 649.1 361.5L657.3 346.2C658.6 346.7 660 346.9 661.4 346.9 662.2 346.9 663 346.8 663.8 346.7L666.4 353.7C664 355.1 662.7 357.6 662.8 360.3ZM675.5 364.3 666.2 364.3 666.2 362.5C666.2 362.1 666.4 361.8 666.7 361.6 667.4 361.1 668.2 360.7 669 360.5 669.6 360.3 670.3 360.2 670.9 360.2 671.5 360.2 672.2 360.3 672.8 360.5 673.6 360.7 674.3 361.1 675 361.6 675.3 361.8 675.5 362.2 675.5 362.5L675.5 364.3Z" fill="#00B0F0"/></g></g></g><g clip-path="url(#clip7)"><g clip-path="url(#clip8)"><g clip-path="url(#clip9)"><path d="M698.1 355.8 646.9 404.2 622.3 379 613.8 387.1 646.5 420.7 655.1 412.7 706.2 364.2Z" fill="#00B050"/></g></g></g></g></svg>